<svg id="logo" xmlns="http://www.w3.org/2000/svg" width="555.751" height="188.453" viewBox="0 0 555.751 188.453">
  <path id="Path_1" data-name="Path 1" d="M109.228,51.575v30.4H86.873V60.6c0-9.609-3.138-13.531-13.139-13.531a26.255,26.255,0,0,0-17.845,7.06V81.97H33.729V28.042H55.889v7.844a44.185,44.185,0,0,1,26.866-8.432C95.305,27.454,109.228,31.572,109.228,51.575Zm123.74-40.4H210.809V28.042H198.847V46.084h11.962V81.97h44.515V63.929H233.164V46.084h22.159V28.042H233.164l-.2-16.865Zm-40.2,47.457H140.8c1.765,5.883,8.04,7.256,13.923,7.256s9.217-.392,12.354-1.961H191.2c-3.53,12.943-15.3,19.218-36.475,19.218s-36.279-8.04-36.279-28.239S133.349,26.67,155.7,26.67,192.768,34.71,192.768,58.634ZM169.432,46.476c-2.549-3.53-8.04-5.295-13.923-5.295s-11.374,1.765-13.727,5.295ZM317.488,56.869a25.353,25.353,0,0,1-17.257,6.667c-9.609,0-12.943-3.922-12.943-13.139V28.042H265.129v31.18c0,19.218,14.511,22.944,26.474,22.944a42.96,42.96,0,0,0,25.689-8.04v7.648h22.159V28.042H317.292V56.869ZM443.973,27.258c-13.139,0-20.983,4.118-26.278,10.393-4.118-7.844-13.531-10.393-20.2-10.393a31.674,31.674,0,0,0-24.317,9.805V28.042H351.021V81.97h22.159V52.947c4.51-4.51,9.217-6.864,14.708-6.864,7.844,0,10.393,3.922,10.393,13.139V81.774h22.159V52.359c4.51-4.51,8.432-6.275,13.923-6.275,7.844,0,10.393,3.922,10.393,13.139V81.97h22.159V49.614c0-18.63-13.531-22.356-22.944-22.356ZM22.159,0H0V22.159H22.159Zm0,28.042H0V81.97H22.159Z" fill="#001c54"/>
  <path id="Path_2" data-name="Path 2" d="M271.659,7.8V29.959h22.159V52.119h22.16V7.8Zm0,44.515H249.5V74.474h22.159Z" transform="translate(239.773 7.496)" fill="#00b5ad"/>
  <path id="Path_3" data-name="Path 3" d="M75.58,61.582v7.06a31.037,31.037,0,0,0-7.452-.981,24.171,24.171,0,0,0-15.3,5.295V90.409H44.4V61.189h8.432v4.9a21.018,21.018,0,0,1,14.9-5.491A34.365,34.365,0,0,1,75.58,61.582Zm32.161,18.237h8.432c-1.961,7.452-9.217,10.982-20,10.982-11.178,0-19.806-4.314-19.806-15.1s8.432-15.1,20.2-15.1c11.178,0,20,3.922,20,17.061H85.189c.98,4.706,5.491,6.275,10.982,6.275S105.584,82.957,107.741,79.819ZM85.385,72.367h22.159c-1.373-4.118-5.491-5.295-10.982-5.295-5.687,0-9.805,1.177-11.178,5.295ZM158.139,75.7V90.409H149.51V86.683A39.742,39.742,0,0,1,131.665,90.8c-8.236,0-13.335-2.549-13.335-9.217,0-7.648,8.432-10,17.649-10A40.677,40.677,0,0,1,149.51,73.74c0-5.491-7.06-6.079-11.178-6.079a52,52,0,0,0-14.512,2.157l-2.941-6.275A54.927,54.927,0,0,1,138.725,60.6c12.354,0,19.414,3.922,19.414,15.1Zm-8.432,3.334a43.757,43.757,0,0,0-12.354-1.765c-6.275,0-10.2,1.177-10.2,4.118s2.745,3.334,7.256,3.334a45.525,45.525,0,0,0,15.3-3.334V79.035ZM170.689,50.6V90.212h-8.432V50.8Zm43.731,0V90.212h-8.432V85.7c-3.138,3.334-8.236,5.1-14.511,5.1-9.413,0-17.453-3.922-17.453-15.1s8.04-15.1,17.453-15.1c6.275,0,11.374,1.765,14.511,5.1V50.6h8.432Zm-8.628,25.1c0-5.883-4.118-8.04-11.766-8.04s-11.766,2.157-11.766,8.04,4.118,8.04,11.766,8.04,11.766-2.157,11.766-8.04Zm11.766,0c0-10.786,8.04-15.1,20.2-15.1s20.2,4.314,20.2,15.1-8.236,15.1-20.2,15.1S217.557,86.487,217.557,75.7Zm31.965,0c0-6.079-3.922-8.04-11.766-8.04S225.99,69.622,225.99,75.7s3.922,8.04,11.766,8.04,11.766-1.961,11.766-8.04Zm20.2-25.1V90.212h-8.432V50.8Zm67.655,23.336-.2,16.276h-8.432V77.27c0-6.275-.98-9.413-7.06-9.413a18.783,18.783,0,0,0-11.374,4.51v1.569l-.2,16.276h-8.432V77.27c0-6.275-.98-9.413-7.06-9.413a17.93,17.93,0,0,0-12.158,5.1V90.212h-8.432V61.189h8.432V65.9a23.638,23.638,0,0,1,15.1-5.295c4.51,0,8.628,1.373,10.786,5.295A25.726,25.726,0,0,1,324.629,60.6c6.667,0,12.55,2.942,12.747,13.335Zm34.318,5.883h8.432c-1.961,7.452-9.217,10.982-20,10.982-11.178,0-19.806-4.314-19.806-15.1s8.432-15.1,20.2-15.1c11.178,0,20,3.922,20,17.061H348.945c.98,4.706,5.491,6.275,10.982,6.275s9.413-.98,11.766-4.118Zm-22.356-7.452H371.5c-1.373-4.118-5.687-5.295-10.982-5.295C354.632,67.073,350.514,68.249,349.338,72.367Zm75.107,1.765v16.08h-8.628V77.27c0-6.275-2.157-9.413-9.021-9.413a20.328,20.328,0,0,0-14.511,6.079V90.212h-8.432V61.189h8.432v5.1A27.907,27.907,0,0,1,409.345,60.6c7.648,0,14.9,2.942,15.1,13.531Z" transform="translate(42.669 48.627)" fill="#001c54"/>
  <path id="Path_4" data-name="Path 4" d="M65.871,91.509A6.286,6.286,0,0,1,59.6,98.176H49.006v4.9H44.3V84.645H58.811a6.547,6.547,0,0,1,7.06,5.883Zm-4.706,0c0-2.745-2.157-2.745-3.53-2.745H49.2v5.491h8.236C59.008,94.254,61.165,94.254,61.165,91.509Zm7.452,3.922c0-5.687,4.314-8.04,10.786-8.04s10.786,2.353,10.786,8.04-4.314,8.04-10.786,8.04S68.617,101.118,68.617,95.431Zm16.865,0c0-3.138-1.961-4.314-6.275-4.314s-6.079,1.177-6.079,4.314,1.961,4.314,6.275,4.314S85.481,98.765,85.481,95.431Zm11.57,2.353c0,1.569,1.765,2.353,6.667,2.353s5.687-.392,5.687-1.569S108.621,97.2,103.13,97c-6.864-.392-10.2-.98-10.2-4.706,0-4.118,4.706-4.706,10.2-4.706,5.883,0,10,.784,10,5.1h-4.51c0-1.373-1.569-1.569-5.883-1.569s-5.491.392-5.491,1.177.784,1.177,6.079,1.569c6.079.392,10.2.588,10.2,4.706s-3.922,5.1-9.805,5.1-11.374-.784-11.374-5.687l4.706-.2ZM121.76,82.292v3.922h-4.51V82.292Zm0,5.491v15.492h-4.51V87.783Zm11.766,3.726v4.51c0,2.942.588,3.726,3.334,3.726a26.285,26.285,0,0,0,3.922-.2v3.53a48.081,48.081,0,0,1-5.295.392c-3.922,0-6.471-1.569-6.471-4.9v-7.06H124.9V87.783h4.118V84.645l4.51-1.373v4.51h7.256v3.726h-7.256Zm15.3-9.217v3.922h-4.51V82.292Zm0,5.491v15.492h-4.51V87.783Zm24.9,0-7.844,15.492h-6.471l-7.844-15.492h5.1l6.079,12.354,6.079-12.354Zm17.257,9.805h4.51c-.98,3.922-4.9,5.883-10.589,5.883s-10.393-2.353-10.393-8.04,4.51-8.04,10.786-8.04c5.883,0,10.589,1.961,10.589,9.021H179.022c.588,2.549,2.941,3.334,5.883,3.334S189.807,99.353,190.984,97.588Zm-11.766-3.922h11.766c-.784-2.157-2.942-2.745-5.883-2.745S179.806,91.509,179.218,93.666Zm54.908-11.374v20.983H229.42v-2.353a10.29,10.29,0,0,1-7.648,2.745c-4.9,0-9.217-2.157-9.217-8.04s4.314-8.04,9.217-8.04a10.019,10.019,0,0,1,7.648,2.745v-8.04h4.706Zm-4.51,13.335c0-3.138-2.157-4.314-6.275-4.314s-6.275,1.177-6.275,4.314,2.157,4.314,6.275,4.314,6.079-1.177,6.079-4.314Zm12.747-13.335v3.922h-4.51V82.292Zm0,5.491v15.492h-4.51V87.783Zm24.513,0v12.943c0,6.275-4.118,9.021-10,9.021a39.077,39.077,0,0,1-9.609-1.177v-3.53a65.107,65.107,0,0,0,8.628,1.177c4.706,0,6.471-1.765,6.471-5.687a10.461,10.461,0,0,1-7.844,2.745c-5.295,0-9.021-2.353-9.021-7.844s3.726-7.844,9.021-7.844a10.461,10.461,0,0,1,7.844,2.745V87.783h4.51Zm-4.51,7.452c0-2.745-1.961-3.922-6.275-3.922s-6.275,1.177-6.275,3.922,1.961,4.118,6.275,4.118,6.079-1.177,6.079-4.118h.2Zm12.747-12.943v3.922H270.6V82.292Zm0,5.491v15.492H270.6V87.783Zm11.766,3.726v4.51c0,2.942.588,3.726,3.334,3.726a28.965,28.965,0,0,0,4.118-.2v3.53a48.08,48.08,0,0,1-5.295.392c-3.922,0-6.667-1.569-6.667-4.9v-7.06h-4.118V87.783h4.118V84.645l4.51-1.373v4.51h7.256v3.726Zm31.376,3.922v7.844h-4.51v-1.961a22.071,22.071,0,0,1-9.413,2.157c-4.314,0-7.06-1.373-7.06-4.9,0-3.922,4.51-5.295,9.413-5.295a21.336,21.336,0,0,1,7.06,1.177c0-2.941-3.726-3.138-5.883-3.138a25.886,25.886,0,0,0-7.648,1.177l-1.569-3.334a31.562,31.562,0,0,1,9.413-1.569c6.275,0,9.805,1.961,10,7.844h.2Zm-4.51,1.765a24.906,24.906,0,0,0-6.667-.98c-3.334,0-5.295.588-5.295,2.157s1.569,1.765,3.922,1.765a22.78,22.78,0,0,0,8.04-1.765V97.2Zm12.55-14.9v20.983h-4.51V82.292h4.51Zm25.689,5.491h6.471v3.726h-6.864v11.766h-4.51V91.509h-4.118V87.783h4.118V86.606c0-3.138,1.961-4.706,6.471-4.706a37.786,37.786,0,0,1,4.706.2v3.138c-.981,0-2.157-.2-3.138-.2-2.549,0-3.138.392-3.334,2.353ZM366.3,82.292v20.983h-4.706V82.292H366.3Zm3.334,13.335c0-5.687,4.314-8.04,10.786-8.04S391.2,89.94,391.2,95.627s-4.314,8.04-10.786,8.04-10.982-2.353-10.982-8.04Zm16.865,0c0-3.138-2.157-4.314-6.275-4.314s-6.275.98-6.275,4.314,1.961,4.314,6.275,4.314,5.883-1.177,5.883-4.314Zm40-7.844-6.864,15.492h-6.079l-4.51-10.786-4.51,10.786h-5.883l-6.864-15.492h5.1l5.1,11.962L406.7,87.783h5.295L416.3,99.745l5.1-11.962h5.1Z" transform="translate(42.573 78.707)" fill="#00b5ad"/>
</svg>
